<svg width="87" height="24" viewBox="0 0 87 24" fill="none" xmlns="http://www.w3.org/2000/svg">
<g clip-path="url(#clip0_246_1469)">
<rect y="3.50198" width="16.996" height="16.996" rx="0.412768" fill="white"/>
<g filter="url(#filter0_f_246_1469)">
<path fill-rule="evenodd" clip-rule="evenodd" d="M11.1088 9.73768V9.72508C11.1088 7.56296 9.35602 5.81021 7.1939 5.81021H5.98566C3.82353 5.81021 2.07079 7.56295 2.07079 9.72508V17.6892H2.23614L4.70687 15.475L4.70687 9.57293C4.70687 8.9243 5.23269 8.39847 5.88133 8.39847H7.29663C7.94527 8.39847 8.47109 8.9243 8.47109 9.57293V12.1015L11.1088 9.73768Z" fill="black"/>
</g>
<g filter="url(#filter1_f_246_1469)">
<path fill-rule="evenodd" clip-rule="evenodd" d="M5.88727 14.268V14.2774C5.88727 16.4395 7.64001 18.1923 9.80214 18.1923H11.0104C13.1725 18.1923 14.9252 16.4395 14.9252 14.2774V6.31327H14.7634L12.2892 8.53069V14.4296C12.2892 15.0782 11.7633 15.604 11.1147 15.604H9.6994C9.05076 15.604 8.52494 15.0782 8.52494 14.4296V11.9041L5.88727 14.268Z" fill="black"/>
</g>
<g style="mix-blend-mode:color-dodge">
<rect x="0.000549316" y="3.50201" width="40.0227" height="40.0227" fill="#393A43"/>
</g>
<g style="mix-blend-mode:color-burn">
<rect x="0.000549316" y="3.50201" width="40.0227" height="40.0227" fill="black"/>
</g>
<g style="mix-blend-mode:screen">
<rect x="0.000549316" y="3.50201" width="40.0227" height="40.0227" fill="black"/>
</g>
</g>
<path d="M26.4906 17C26.39 17 26.3045 16.9648 26.2341 16.8944C26.1637 16.824 26.1285 16.7385 26.1285 16.6379V6.80176C26.1285 6.70118 26.1637 6.6157 26.2341 6.54529C26.3045 6.47489 26.39 6.43969 26.4906 6.43969H27.9087C28.0193 6.43969 28.1048 6.47489 28.1651 6.54529C28.2355 6.6157 28.2707 6.70118 28.2707 6.80176V16.6379C28.2707 16.7385 28.2355 16.824 28.1651 16.8944C28.1048 16.9648 28.0193 17 27.9087 17H26.4906ZM32.5074 17C32.4068 17 32.3213 16.9648 32.2509 16.8944C32.1805 16.824 32.1453 16.7385 32.1453 16.6379V6.81684C32.1453 6.70621 32.1805 6.6157 32.2509 6.54529C32.3213 6.47489 32.4068 6.43969 32.5074 6.43969H33.669C33.8098 6.43969 33.9104 6.47489 33.9707 6.54529C34.0411 6.60564 34.0864 6.6509 34.1065 6.68107L38.4513 13.4397V6.81684C38.4513 6.70621 38.4815 6.6157 38.5418 6.54529C38.6122 6.47489 38.7027 6.43969 38.8134 6.43969H40.0806C40.1912 6.43969 40.2818 6.47489 40.3522 6.54529C40.4226 6.6157 40.4578 6.70621 40.4578 6.81684V16.6228C40.4578 16.7335 40.4226 16.824 40.3522 16.8944C40.2818 16.9648 40.1963 17 40.0957 17H38.919C38.7782 17 38.6776 16.9648 38.6172 16.8944C38.5569 16.824 38.5116 16.7787 38.4815 16.7586L34.1517 10.1509V16.6379C34.1517 16.7385 34.1165 16.824 34.0461 16.8944C33.9757 16.9648 33.8852 17 33.7746 17H32.5074ZM44.6824 17C44.5818 17 44.4963 16.9648 44.4259 16.8944C44.3555 16.824 44.3203 16.7385 44.3203 16.6379V6.81684C44.3203 6.70621 44.3555 6.6157 44.4259 6.54529C44.4963 6.47489 44.5818 6.43969 44.6824 6.43969H51.2297C51.3404 6.43969 51.4309 6.47489 51.5013 6.54529C51.5717 6.6157 51.6069 6.70621 51.6069 6.81684V7.87288C51.6069 7.98351 51.5717 8.07402 51.5013 8.14443C51.4309 8.20477 51.3404 8.23494 51.2297 8.23494H46.3871V11.1013H50.928C51.0387 11.1013 51.1292 11.1365 51.1996 11.2069C51.27 11.2773 51.3052 11.3678 51.3052 11.4785V12.5345C51.3052 12.6351 51.27 12.7206 51.1996 12.791C51.1292 12.8614 51.0387 12.8966 50.928 12.8966H46.3871V16.6379C46.3871 16.7385 46.3519 16.824 46.2815 16.8944C46.2111 16.9648 46.1206 17 46.0099 17H44.6824ZM55.2515 17C55.1509 17 55.0654 16.9648 54.995 16.8944C54.9246 16.824 54.8894 16.7385 54.8894 16.6379V6.81684C54.8894 6.70621 54.9246 6.6157 54.995 6.54529C55.0654 6.47489 55.1509 6.43969 55.2515 6.43969H61.8894C62 6.43969 62.0906 6.47489 62.161 6.54529C62.2314 6.6157 62.2666 6.70621 62.2666 6.81684V7.81253C62.2666 7.9131 62.2314 7.99859 62.161 8.069C62.0906 8.1394 62 8.1746 61.8894 8.1746H56.9261V10.8448H61.5575C61.6681 10.8448 61.7587 10.88 61.8291 10.9505C61.8995 11.0108 61.9347 11.0963 61.9347 11.2069V12.1423C61.9347 12.2529 61.8995 12.3434 61.8291 12.4138C61.7587 12.4742 61.6681 12.5043 61.5575 12.5043H56.9261V15.2651H62.0101C62.1207 15.2651 62.2112 15.3003 62.2816 15.3707C62.3521 15.4411 62.3873 15.5316 62.3873 15.6422V16.6379C62.3873 16.7385 62.3521 16.824 62.2816 16.8944C62.2112 16.9648 62.1207 17 62.0101 17H55.2515ZM66.1448 17C66.0442 17 65.9587 16.9648 65.8883 16.8944C65.8179 16.824 65.7827 16.7385 65.7827 16.6379V6.81684C65.7827 6.70621 65.8179 6.6157 65.8883 6.54529C65.9587 6.47489 66.0442 6.43969 66.1448 6.43969H70.0521C71.269 6.43969 72.2295 6.7213 72.9335 7.28451C73.6376 7.84773 73.9896 8.66741 73.9896 9.74356C73.9896 10.4878 73.8035 11.1063 73.4314 11.5992C73.0693 12.092 72.5815 12.449 71.968 12.6703L74.1706 16.5172C74.2008 16.5776 74.2159 16.6329 74.2159 16.6832C74.2159 16.7737 74.1807 16.8491 74.1103 16.9095C74.0499 16.9698 73.9795 17 73.8991 17H72.5262C72.3552 17 72.2245 16.9547 72.134 16.8642C72.0435 16.7737 71.9731 16.6832 71.9228 16.5927L69.9767 13.0173H67.8797V16.6379C67.8797 16.7385 67.8445 16.824 67.7741 16.8944C67.7137 16.9648 67.6282 17 67.5176 17H66.1448ZM67.8797 11.3125H70.0068C70.6203 11.3125 71.0779 11.1767 71.3797 10.9052C71.6814 10.6236 71.8322 10.2313 71.8322 9.72847C71.8322 9.2256 71.6814 8.83336 71.3797 8.55175C71.088 8.26009 70.6304 8.11425 70.0068 8.11425H67.8797V11.3125ZM76.7934 17C76.7129 17 76.6375 16.9698 76.5671 16.9095C76.5067 16.8491 76.4765 16.7737 76.4765 16.6832C76.4765 16.643 76.4866 16.5977 76.5067 16.5474L80.1425 6.81684C80.1726 6.71627 80.228 6.63078 80.3084 6.56038C80.3989 6.47992 80.5196 6.43969 80.6705 6.43969H82.3149C82.4657 6.43969 82.5814 6.47992 82.6619 6.56038C82.7423 6.63078 82.8027 6.71627 82.8429 6.81684L86.4787 16.5474C86.4887 16.5977 86.4937 16.643 86.4937 16.6832C86.4937 16.7737 86.4636 16.8491 86.4032 16.9095C86.3429 16.9698 86.2725 17 86.192 17H84.8795C84.7387 17 84.6331 16.9698 84.5627 16.9095C84.5024 16.8391 84.4621 16.7737 84.442 16.7134L83.733 14.8729H79.2524L78.5433 16.7134C78.5232 16.7737 78.478 16.8391 78.4076 16.9095C78.3472 16.9698 78.2467 17 78.1058 17H76.7934ZM79.7804 13.1379H83.205L81.4851 8.47632L79.7804 13.1379Z" fill="white"/>
<defs>
<filter id="filter0_f_246_1469" x="1.75761" y="5.49702" width="9.66434" height="12.5054" filterUnits="userSpaceOnUse" color-interpolation-filters="sRGB">
<feFlood flood-opacity="0" result="BackgroundImageFix"/>
<feBlend mode="normal" in="SourceGraphic" in2="BackgroundImageFix" result="shape"/>
<feGaussianBlur stdDeviation="0.156595" result="effect1_foregroundBlur_246_1469"/>
</filter>
<filter id="filter1_f_246_1469" x="5.57408" y="6.00007" width="9.66434" height="12.5054" filterUnits="userSpaceOnUse" color-interpolation-filters="sRGB">
<feFlood flood-opacity="0" result="BackgroundImageFix"/>
<feBlend mode="normal" in="SourceGraphic" in2="BackgroundImageFix" result="shape"/>
<feGaussianBlur stdDeviation="0.156595" result="effect1_foregroundBlur_246_1469"/>
</filter>
<clipPath id="clip0_246_1469">
<rect y="3.50198" width="16.996" height="16.996" rx="0.412768" fill="white"/>
</clipPath>
</defs>
</svg>
